<svg xmlns="http://www.w3.org/2000/svg" width="246" height="80" viewBox="0 0 246 80" fill="none">
    <!-- Background: White -->
    <rect width="246" height="80" fill="white" />
    
    <!-- Text Group -->
    <text x="8" y="40" font-family="'Sarabun', 'Prompt', system-ui, -apple-system, sans-serif" font-size="18" font-weight="bold" fill="#1e3a8a">การจัดการความรู้</text>
    <text x="8" y="58" font-family="'Sarabun', 'Prompt', system-ui, -apple-system, sans-serif" font-size="11" fill="#64748b">(Knowledge Management)</text>
    
    <!-- Logo Icon (extracted from logo.svg) -->
    <!-- Positioned on the right: (246 width - 48 logo width - 10 padding = ~188) -->
    <g transform="translate(188, 16)">
        <svg width="48" height="48" viewBox="0 0 24 24" fill="none" stroke="#2563eb" stroke-width="1.5" stroke-linecap="round" stroke-linejoin="round">
            <path d="M12 6.253v13m0-13C10.832 5.477 9.246 5 7.5 5S4.168 5.477 3 6.253v13C4.168 18.477 5.754 18 7.5 18s3.332.477 4.5 1.253m0-13C13.168 5.477 14.754 5 16.5 5c1.747 0 3.332.477 4.5 1.253v13C19.832 18.477 18.247 18 16.5 18c-1.746 0-3.332.477-4.5 1.253" />
        </svg>
    </g>
</svg>
